# xmcd CD database file
#
# Track frame offsets:
#	150
#	24200
#	44250
#	80880
#	107120
#	131815
#	158497
#	187382
#	213337
#	238407
#
# Disc length: 3679 seconds
#
# Revision: 1
# Processed by: cddbd v1.5.2PL0 Copyright (c) Steve Scherf et al.
# Submitted via: CDex 1.70beta2
#
DISCID=8d0e5d0a
DTITLE=Anthony Wonsey Trio - Another Perspective
DYEAR=1996
DGENRE=Jazz
TTITLE0=Blue Pearl
TTITLE1=Lover
TTITLE2=Song For Constance
TTITLE3=Wise Man Willis
TTITLE4=I'll Keep Loving You
TTITLE5=Marmalade
TTITLE6=Herbie's Hands
TTITLE7=We're All Together
TTITLE8=Who Can I Turn To?
TTITLE9=Duid Deed
EXTD=YEAR: 1996
EXTT0=
EXTT1=
EXTT2=
EXTT3=
EXTT4=
EXTT5=
EXTT6=
EXTT7=
EXTT8=
EXTT9=
PLAYORDER=
